<?xml version="1.0" standalone="no"?>
<!DOCTYPE svg PUBLIC "-//W3C//DTD SVG 20010904//EN"
 "http://www.w3.org/TR/2001/REC-SVG-20010904/DTD/svg10.dtd">
<svg version="1.0" xmlns="http://www.w3.org/2000/svg"
 width="122.000000pt" height="112.000000pt" viewBox="0 0 122.000000 112.000000"
 preserveAspectRatio="xMidYMid meet">

<g transform="translate(0.000000,112.000000) scale(0.100000,-0.100000)"
fill="#000000" stroke="none">
<path d="M517 965 c-80 -30 -151 -98 -190 -182 -17 -37 -22 -67 -22 -133 0
-91 19 -148 72 -211 l25 -29 -49 0 c-45 0 -52 -4 -98 -50 l-49 -50 -68 67
c-37 37 -71 64 -75 60 -4 -4 22 -36 57 -71 l63 -64 -63 -71 c-35 -39 -60 -74
-56 -78 3 -4 36 22 71 57 l65 65 98 -98 97 -97 95 95 95 95 95 -95 95 -95 155
0 154 0 -28 -29 c-16 -17 -25 -34 -21 -41 8 -13 95 65 95 85 0 20 -87 98 -95
85 -4 -7 5 -24 21 -41 l28 -29 -149 0 -150 0 -97 97 -98 98 -95 -95 -95 -95
-90 90 -90 89 42 43 42 43 235 0 235 0 203 202 203 202 0 -42 c0 -31 4 -42 15
-42 12 0 15 14 15 65 l0 65 -65 0 c-37 0 -65 -4 -65 -10 0 -5 19 -10 42 -10
l43 0 -100 -100 -100 -101 -7 67 c-4 39 -17 88 -33 119 -35 73 -121 150 -187
170 -63 19 -170 18 -221 0z m207 -77 c25 -45 17 -57 -43 -65 l-41 -6 0 73 0
72 31 -19 c17 -10 41 -35 53 -55z m-104 -3 l0 -65 -29 0 c-16 0 -41 4 -56 10
l-26 10 21 39 c20 40 54 71 77 71 9 0 13 -19 13 -65z m-92 38 c-9 -10 -22 -30
-29 -45 l-14 -27 -29 18 -28 19 44 26 c52 31 79 35 56 9z m265 -15 c15 -11 27
-21 27 -23 0 -1 -11 -10 -24 -19 -24 -15 -25 -14 -48 22 -12 20 -24 41 -27 46
-5 12 40 -4 72 -26z m-319 -100 c-3 -10 -8 -46 -12 -80 l-7 -63 -68 -3 -68 -3
7 38 c9 51 40 123 65 149 l21 22 33 -21 c23 -15 32 -28 29 -39z m426 -14 c12
-26 25 -67 28 -91 l5 -44 -64 3 -64 3 -6 55 c-4 30 -10 67 -14 81 -5 22 -1 29
27 47 39 25 52 18 88 -54z m-302 -5 c21 -8 23 -14 20 -66 l-3 -58 -67 -3 -68
-3 0 38 c0 21 5 55 11 76 10 37 11 38 47 31 20 -4 47 -11 60 -15z m171 -42 c6
-35 11 -67 11 -70 0 -4 -31 -7 -70 -7 l-70 0 0 59 0 60 43 9 c75 17 74 18 86
-51z m-314 -154 c4 -27 10 -62 15 -79 7 -28 4 -34 -23 -54 -22 -17 -35 -20
-46 -13 -21 12 -68 108 -76 156 l-6 37 65 0 65 0 6 -47z m160 -17 l0 -59 -55
-13 c-30 -7 -57 -11 -58 -9 -7 7 -22 81 -22 113 l0 33 68 -3 67 -3 0 -59z
m162 32 c-3 -18 -9 -53 -12 -76 -6 -39 -9 -43 -29 -37 -11 3 -38 9 -58 12
l-38 6 0 63 0 64 71 0 71 0 -5 -32z m155 -3 c-5 -41 -110 -149 -136 -139 -13
5 -16 13 -12 33 4 14 9 52 13 84 l6 58 66 -3 66 -3 -3 -30z m-314 -158 l3 -37
-44 0 c-38 0 -45 4 -56 26 -14 32 -15 31 35 43 54 12 59 10 62 -32z m78 32
c46 -12 51 -18 34 -50 -8 -14 -21 -19 -50 -19 -40 0 -40 0 -40 40 0 22 3 40 6
40 3 0 25 -5 50 -11z m-202 -45 c9 -24 9 -24 -31 -24 l-38 0 25 20 c31 24 36
24 44 4z m285 -10 c-17 -21 -31 -17 -19 6 6 11 15 18 21 14 6 -4 6 -11 -2 -20z"/>
</g>
</svg>
